# xmcd
#
# Track frame offsets: 
#        183
#        11033
#        22288
#        39118
#        49628
#        60428
#        74268
#        83483
#        105505
#        116740
#        127263
#        135533
#        152010
#        163105
#        188210
#        199878
#        215333
#        227200
#        238720
#        249755
#
# Disc length: 3530 seconds
#
# Revision: 3
# Processed by: cddbd v1.5.2PL0 Copyright (c) Steve Scherf et al.
# Submitted via: ExactAudioCopyFreeDBPlugin 1.0
#
DISCID=0f0dc814
DTITLE=Various Artist - 60 Greatest Rhythm and Blues Classics
DYEAR=1990
DGENRE=Rhythm and Blues
TTITLE0=Gene Chandler - Duke of Earl
TTITLE1=Doris Troy - Just One Look
TTITLE2=Solomon Burke - Hold On, I'm Coming
TTITLE3=Lloyd Price - Stagger Lee
TTITLE4=Wilbert Harrison - Kansas City
TTITLE5=Eddie Floyd - Knock on Wood
TTITLE6=Gladys Knight &ThePips - Every Beat of My Heart
TTITLE7=Billy Stewart - Summertime
TTITLE8=Bobby Moore - Searchin' for My Baby
TTITLE9=The Monotones - The Book of Love
TTITLE10=Sonny Til and The Orioles - Crying in the Chapel
TTITLE11=Mitty Collier - I Had a Talk with My Man
TTITLE12=Brook Benton - It's Just a Matter of Time
TTITLE13=Nina Simone - Trouble in Mind
TTITLE14=Ernie K-Doe - Mother-in-Law
TTITLE15=Lee Dorsey - Yes We Can
TTITLE16=Little Milton - We're Gonna Make It
TTITLE17=Rufus Thomas - Walkin' the Dog
TTITLE18=Benny Spellman - Lipstick Traces
TTITLE19=Arthur Alexander - You Better Move On
EXTD=more info - MillenniumMusicProjectFormat - SYNTAX=SongTitle{Subtit
EXTD=le}[miscInfo](Lyricist;Composer;Date,Artist,Location,State,Countr
EXTD=y)
EXTT0=
EXTT1=
EXTT2=
EXTT3=
EXTT4=
EXTT5=
EXTT6=
EXTT7=
EXTT8=
EXTT9=
EXTT10=
EXTT11=
EXTT12=
EXTT13=
EXTT14=
EXTT15=
EXTT16=
EXTT17=
EXTT18=
EXTT19=
PLAYORDER=
